<?xml version="1.0" encoding="UTF-8" standalone="no"?>
<!DOCTYPE svg PUBLIC "-//W3C//DTD SVG 1.1//EN"
 "http://www.w3.org/Graphics/SVG/1.1/DTD/svg11.dtd">
<!-- Generated by graphviz version 2.42.4 (0)
 -->
<!-- Title: G Pages: 1 -->
<svg width="520pt" height="408pt"
 viewBox="0.00 0.00 520.00 408.00" xmlns="http://www.w3.org/2000/svg" xmlns:xlink="http://www.w3.org/1999/xlink">
<g id="graph0" class="graph" transform="scale(1 1) rotate(0) translate(18 390)">
<title>G</title>
<!-- A -->
<g id="node1" class="node">
<title>A</title>
<path fill="#f7f7f7" stroke="#222222" stroke-width="1.2" d="M67,-92C67,-92 12,-92 12,-92 6,-92 0,-86 0,-80 0,-80 0,-68 0,-68 0,-62 6,-56 12,-56 12,-56 67,-56 67,-56 73,-56 79,-62 79,-68 79,-68 79,-80 79,-80 79,-86 73,-92 67,-92"/>
<text text-anchor="middle" x="39.5" y="-71.2" font-family="DejaVu Sans" font-size="11.00" fill="#111111">Заправка</text>
</g>
<!-- S -->
<g id="node2" class="node">
<title>S</title>
<path fill="#f7f7f7" stroke="#222222" stroke-width="1.2" d="M208,-178C208,-178 131,-178 131,-178 125,-178 119,-172 119,-166 119,-166 119,-154 119,-154 119,-148 125,-142 131,-142 131,-142 208,-142 208,-142 214,-142 220,-148 220,-154 220,-154 220,-166 220,-166 220,-172 214,-178 208,-178"/>
<text text-anchor="middle" x="169.5" y="-157.2" font-family="DejaVu Sans" font-size="11.00" fill="#111111">ION SuperApp</text>
</g>
<!-- A&#45;&gt;S -->
<g id="edge1" class="edge">
<title>A&#45;&gt;S</title>
<path fill="none" stroke="#555555" d="M79.2,-78C111.93,-78 153,-78 153,-78 153,-78 153,-134.8 153,-134.8"/>
<polygon fill="#555555" stroke="#555555" points="150.55,-134.8 153,-141.8 155.45,-134.8 150.55,-134.8"/>
</g>
<!-- ID -->
<g id="node6" class="node">
<title>ID</title>
<path fill="#f7f7f7" stroke="#222222" stroke-width="1.2" d="M341.5,-209C341.5,-209 275.5,-209 275.5,-209 269.5,-209 263.5,-203 263.5,-197 263.5,-197 263.5,-185 263.5,-185 263.5,-179 269.5,-173 275.5,-173 275.5,-173 341.5,-173 341.5,-173 347.5,-173 353.5,-179 353.5,-185 353.5,-185 353.5,-197 353.5,-197 353.5,-203 347.5,-209 341.5,-209"/>
<text text-anchor="middle" x="308.5" y="-188.2" font-family="DejaVu Sans" font-size="11.00" fill="#111111">ION ID / Car</text>
</g>
<!-- S&#45;&gt;ID -->
<g id="edge5" class="edge">
<title>S&#45;&gt;ID</title>
<path fill="none" stroke="#555555" d="M220.15,-168C245.97,-168 272,-168 272,-168 272,-168 272,-168.49 272,-168.49"/>
<polygon fill="#555555" stroke="#555555" points="269.55,-165.88 272,-172.88 274.45,-165.88 269.55,-165.88"/>
</g>
<!-- PAY -->
<g id="node7" class="node">
<title>PAY</title>
<path fill="#f7f7f7" stroke="#222222" stroke-width="1.2" d="M330.5,-148C330.5,-148 286.5,-148 286.5,-148 280.5,-148 274.5,-142 274.5,-136 274.5,-136 274.5,-124 274.5,-124 274.5,-118 280.5,-112 286.5,-112 286.5,-112 330.5,-112 330.5,-112 336.5,-112 342.5,-118 342.5,-124 342.5,-124 342.5,-136 342.5,-136 342.5,-142 336.5,-148 330.5,-148"/>
<text text-anchor="middle" x="308.5" y="-127.2" font-family="DejaVu Sans" font-size="11.00" fill="#111111">ION Pay</text>
</g>
<!-- S&#45;&gt;PAY -->
<g id="edge6" class="edge">
<title>S&#45;&gt;PAY</title>
<path fill="none" stroke="#555555" d="M220.26,-158C260.14,-158 309,-158 309,-158 309,-158 309,-155.21 309,-155.21"/>
<polygon fill="#555555" stroke="#555555" points="311.45,-155.21 309,-148.21 306.55,-155.21 311.45,-155.21"/>
</g>
<!-- INV -->
<g id="node8" class="node">
<title>INV</title>
<path fill="#f7f7f7" stroke="#222222" stroke-width="1.2" d="M337.5,-372C337.5,-372 279.5,-372 279.5,-372 273.5,-372 267.5,-366 267.5,-360 267.5,-360 267.5,-348 267.5,-348 267.5,-342 273.5,-336 279.5,-336 279.5,-336 337.5,-336 337.5,-336 343.5,-336 349.5,-342 349.5,-348 349.5,-348 349.5,-360 349.5,-360 349.5,-366 343.5,-372 337.5,-372"/>
<text text-anchor="middle" x="308.5" y="-351.2" font-family="DejaVu Sans" font-size="11.00" fill="#111111">ION Invest</text>
</g>
<!-- S&#45;&gt;INV -->
<g id="edge7" class="edge">
<title>S&#45;&gt;INV</title>
<path fill="none" stroke="#555555" d="M153,-178.25C153,-226.54 153,-354 153,-354 153,-354 260.24,-354 260.24,-354"/>
<polygon fill="#555555" stroke="#555555" points="260.24,-356.45 267.24,-354 260.24,-351.55 260.24,-356.45"/>
</g>
<!-- DATA -->
<g id="node9" class="node">
<title>DATA</title>
<path fill="#f7f7f7" stroke="#222222" stroke-width="1.2" d="M345,-36C345,-36 272,-36 272,-36 266,-36 260,-30 260,-24 260,-24 260,-12 260,-12 260,-6 266,0 272,0 272,0 345,0 345,0 351,0 357,-6 357,-12 357,-12 357,-24 357,-24 357,-30 351,-36 345,-36"/>
<text text-anchor="middle" x="308.5" y="-15.2" font-family="DejaVu Sans" font-size="11.00" fill="#111111">ION Data / AI</text>
</g>
<!-- S&#45;&gt;DATA -->
<g id="edge8" class="edge">
<title>S&#45;&gt;DATA</title>
<path fill="none" stroke="#555555" d="M220.12,-153C244.7,-153 269,-153 269,-153 269,-153 269,-43.21 269,-43.21"/>
<polygon fill="#555555" stroke="#555555" points="271.45,-43.21 269,-36.21 266.55,-43.21 271.45,-43.21"/>
</g>
<!-- B -->
<g id="node3" class="node">
<title>B</title>
<path fill="#f7f7f7" stroke="#222222" stroke-width="1.2" d="M470,-64C470,-64 411,-64 411,-64 405,-64 399,-58 399,-52 399,-52 399,-40 399,-40 399,-34 405,-28 411,-28 411,-28 470,-28 470,-28 476,-28 482,-34 482,-40 482,-40 482,-52 482,-52 482,-58 476,-64 470,-64"/>
<text text-anchor="middle" x="440.5" y="-43.2" font-family="DejaVu Sans" font-size="11.00" fill="#111111">Auto Store</text>
</g>
<!-- B&#45;&gt;S -->
<g id="edge2" class="edge">
<title>B&#45;&gt;S</title>
<path fill="none" stroke="#555555" d="M398.92,-61.33C327.01,-61.33 187,-61.33 187,-61.33 187,-61.33 187,-134.9 187,-134.9"/>
<polygon fill="#555555" stroke="#555555" points="184.55,-134.9 187,-141.9 189.45,-134.9 184.55,-134.9"/>
</g>
<!-- C -->
<g id="node4" class="node">
<title>C</title>
<path fill="#f7f7f7" stroke="#222222" stroke-width="1.2" d="M467.5,-218C467.5,-218 413.5,-218 413.5,-218 407.5,-218 401.5,-212 401.5,-206 401.5,-206 401.5,-194 401.5,-194 401.5,-188 407.5,-182 413.5,-182 413.5,-182 467.5,-182 467.5,-182 473.5,-182 479.5,-188 479.5,-194 479.5,-194 479.5,-206 479.5,-206 479.5,-212 473.5,-218 467.5,-218"/>
<text text-anchor="middle" x="440.5" y="-197.2" font-family="DejaVu Sans" font-size="11.00" fill="#111111">ION Drive</text>
</g>
<!-- C&#45;&gt;S -->
<g id="edge3" class="edge">
<title>C&#45;&gt;S</title>
<path fill="none" stroke="#555555" d="M441,-181.93C441,-172.54 441,-163 441,-163 441,-163 227.25,-163 227.25,-163"/>
<polygon fill="#555555" stroke="#555555" points="227.25,-160.55 220.25,-163 227.25,-165.45 227.25,-160.55"/>
</g>
<!-- D -->
<g id="node5" class="node">
<title>D</title>
<path fill="#f7f7f7" stroke="#222222" stroke-width="1.2" d="M61.5,-178C61.5,-178 17.5,-178 17.5,-178 11.5,-178 5.5,-172 5.5,-166 5.5,-166 5.5,-154 5.5,-154 5.5,-148 11.5,-142 17.5,-142 17.5,-142 61.5,-142 61.5,-142 67.5,-142 73.5,-148 73.5,-154 73.5,-154 73.5,-166 73.5,-166 73.5,-172 67.5,-178 61.5,-178"/>
<text text-anchor="middle" x="39.5" y="-157.2" font-family="DejaVu Sans" font-size="11.00" fill="#111111">Referral</text>
</g>
<!-- D&#45;&gt;S -->
<g id="edge4" class="edge">
<title>D&#45;&gt;S</title>
<path fill="none" stroke="#555555" d="M73.66,-160C73.66,-160 111.94,-160 111.94,-160"/>
<polygon fill="#555555" stroke="#555555" points="111.94,-162.45 118.94,-160 111.94,-157.55 111.94,-162.45"/>
</g>
<!-- R -->
<g id="node10" class="node">
<title>R</title>
<path fill="#f7f7f7" stroke="#222222" stroke-width="1.2" d="M472,-344C472,-344 409,-344 409,-344 403,-344 397,-338 397,-332 397,-332 397,-320 397,-320 397,-314 403,-308 409,-308 409,-308 472,-308 472,-308 478,-308 484,-314 484,-320 484,-320 484,-332 484,-332 484,-338 478,-344 472,-344"/>
<text text-anchor="middle" x="440.5" y="-323.2" font-family="DejaVu Sans" font-size="11.00" fill="#111111">ION reward</text>
</g>
<!-- INV&#45;&gt;R -->
<g id="edge9" class="edge">
<title>INV&#45;&gt;R</title>
<path fill="none" stroke="#555555" d="M349.54,-340C349.54,-340 389.74,-340 389.74,-340"/>
<polygon fill="#555555" stroke="#555555" points="389.74,-342.45 396.74,-340 389.74,-337.55 389.74,-342.45"/>
</g>
<!-- DATA&#45;&gt;A -->
<g id="edge11" class="edge">
<title>DATA&#45;&gt;A</title>
<path fill="none" stroke="#555555" d="M267,-36.43C267,-47.19 267,-58.67 267,-58.67 267,-58.67 86.13,-58.67 86.13,-58.67"/>
<polygon fill="#555555" stroke="#555555" points="86.13,-56.22 79.13,-58.67 86.13,-61.12 86.13,-56.22"/>
</g>
<!-- DATA&#45;&gt;B -->
<g id="edge12" class="edge">
<title>DATA&#45;&gt;B</title>
<path fill="none" stroke="#555555" d="M357.28,-33.33C357.28,-33.33 391.86,-33.33 391.86,-33.33"/>
<polygon fill="#555555" stroke="#555555" points="391.86,-35.78 398.86,-33.33 391.86,-30.88 391.86,-35.78"/>
</g>
<!-- DATA&#45;&gt;C -->
<g id="edge13" class="edge">
<title>DATA&#45;&gt;C</title>
<path fill="none" stroke="#555555" d="M357.19,-30.67C368.34,-30.67 377,-30.67 377,-30.67 377,-30.67 377,-195.5 377,-195.5 377,-195.5 394.37,-195.5 394.37,-195.5"/>
<polygon fill="#555555" stroke="#555555" points="394.37,-197.95 401.37,-195.5 394.37,-193.05 394.37,-197.95"/>
</g>
<!-- R&#45;&gt;S -->
<g id="edge10" class="edge">
<title>R&#45;&gt;S</title>
<path fill="none" stroke="#555555" d="M396.92,-322C324.44,-322 187,-322 187,-322 187,-322 187,-185.27 187,-185.27"/>
<polygon fill="#555555" stroke="#555555" points="189.45,-185.27 187,-178.27 184.55,-185.27 189.45,-185.27"/>
</g>
</g>
</svg>
