<?xml version="1.0" encoding="UTF-8" standalone="no"?>
<!DOCTYPE svg PUBLIC "-//W3C//DTD SVG 1.1//EN"
 "http://www.w3.org/Graphics/SVG/1.1/DTD/svg11.dtd">
<!-- Generated by graphviz version 2.42.4 (0)
 -->
<!-- Title: G Pages: 1 -->
<svg width="870pt" height="72pt"
 viewBox="0.00 0.00 870.00 72.00" xmlns="http://www.w3.org/2000/svg" xmlns:xlink="http://www.w3.org/1999/xlink">
<g id="graph0" class="graph" transform="scale(1 1) rotate(0) translate(18 54)">
<title>G</title>
<!-- A -->
<g id="node1" class="node">
<title>A</title>
<path fill="#f7f7f7" stroke="#222222" stroke-width="1.2" d="M42,-36C42,-36 12,-36 12,-36 6,-36 0,-30 0,-24 0,-24 0,-12 0,-12 0,-6 6,0 12,0 12,0 42,0 42,0 48,0 54,-6 54,-12 54,-12 54,-24 54,-24 54,-30 48,-36 42,-36"/>
<text text-anchor="middle" x="27" y="-15.2" font-family="DejaVu Sans" font-size="11.00" fill="#111111">АО</text>
</g>
<!-- B -->
<g id="node2" class="node">
<title>B</title>
<path fill="#f7f7f7" stroke="#222222" stroke-width="1.2" d="M255,-36C255,-36 106,-36 106,-36 100,-36 94,-30 94,-24 94,-24 94,-12 94,-12 94,-6 100,0 106,0 106,0 255,0 255,0 261,0 267,-6 267,-12 267,-12 267,-24 267,-24 267,-30 261,-36 255,-36"/>
<text text-anchor="middle" x="180.5" y="-15.2" font-family="DejaVu Sans" font-size="11.00" fill="#111111">Выпуск зарегистрирован</text>
</g>
<!-- A&#45;&gt;B -->
<g id="edge1" class="edge">
<title>A&#45;&gt;B</title>
<path fill="none" stroke="#555555" d="M54.09,-18C54.09,-18 86.74,-18 86.74,-18"/>
<polygon fill="#555555" stroke="#555555" points="86.74,-20.45 93.74,-18 86.74,-15.55 86.74,-20.45"/>
</g>
<!-- C -->
<g id="node3" class="node">
<title>C</title>
<path fill="#f7f7f7" stroke="#222222" stroke-width="1.2" d="M349,-36C349,-36 319,-36 319,-36 313,-36 307,-30 307,-24 307,-24 307,-12 307,-12 307,-6 313,0 319,0 319,0 349,0 349,0 355,0 361,-6 361,-12 361,-12 361,-24 361,-24 361,-30 355,-36 349,-36"/>
<text text-anchor="middle" x="334" y="-15.2" font-family="DejaVu Sans" font-size="11.00" fill="#111111">CSD</text>
</g>
<!-- B&#45;&gt;C -->
<g id="edge2" class="edge">
<title>B&#45;&gt;C</title>
<path fill="none" stroke="#555555" d="M267.12,-18C267.12,-18 299.87,-18 299.87,-18"/>
<polygon fill="#555555" stroke="#555555" points="299.87,-20.45 306.87,-18 299.87,-15.55 299.87,-20.45"/>
</g>
<!-- D -->
<g id="node4" class="node">
<title>D</title>
<path fill="#f7f7f7" stroke="#222222" stroke-width="1.2" d="M463,-36C463,-36 413,-36 413,-36 407,-36 401,-30 401,-24 401,-24 401,-12 401,-12 401,-6 407,0 413,0 413,0 463,0 463,0 469,0 475,-6 475,-12 475,-12 475,-24 475,-24 475,-30 469,-36 463,-36"/>
<text text-anchor="middle" x="438" y="-15.2" font-family="DejaVu Sans" font-size="11.00" fill="#111111">Листинг</text>
</g>
<!-- C&#45;&gt;D -->
<g id="edge3" class="edge">
<title>C&#45;&gt;D</title>
<path fill="none" stroke="#555555" d="M361.05,-18C361.05,-18 393.9,-18 393.9,-18"/>
<polygon fill="#555555" stroke="#555555" points="393.9,-20.45 400.9,-18 393.9,-15.55 393.9,-20.45"/>
</g>
<!-- E -->
<g id="node5" class="node">
<title>E</title>
<path fill="#f7f7f7" stroke="#222222" stroke-width="1.2" d="M657,-36C657,-36 527,-36 527,-36 521,-36 515,-30 515,-24 515,-24 515,-12 515,-12 515,-6 521,0 527,0 527,0 657,0 657,0 663,0 669,-6 669,-12 669,-12 669,-24 669,-24 669,-30 663,-36 657,-36"/>
<text text-anchor="middle" x="592" y="-15.2" font-family="DejaVu Sans" font-size="11.00" fill="#111111">Публичная котировка</text>
</g>
<!-- D&#45;&gt;E -->
<g id="edge4" class="edge">
<title>D&#45;&gt;E</title>
<path fill="none" stroke="#555555" d="M475.28,-18C475.28,-18 507.89,-18 507.89,-18"/>
<polygon fill="#555555" stroke="#555555" points="507.89,-20.45 514.89,-18 507.89,-15.55 507.89,-20.45"/>
</g>
<!-- F -->
<g id="node6" class="node">
<title>F</title>
<path fill="#f7f7f7" stroke="#222222" stroke-width="1.2" d="M822,-36C822,-36 721,-36 721,-36 715,-36 709,-30 709,-24 709,-24 709,-12 709,-12 709,-6 715,0 721,0 721,0 822,0 822,0 828,0 834,-6 834,-12 834,-12 834,-24 834,-24 834,-30 828,-36 822,-36"/>
<text text-anchor="middle" x="771.5" y="-15.2" font-family="DejaVu Sans" font-size="11.00" fill="#111111">ION&#45;linked referral</text>
</g>
<!-- E&#45;&gt;F -->
<g id="edge5" class="edge">
<title>E&#45;&gt;F</title>
<path fill="none" stroke="#555555" d="M669.17,-18C669.17,-18 701.73,-18 701.73,-18"/>
<polygon fill="#555555" stroke="#555555" points="701.73,-20.45 708.73,-18 701.73,-15.55 701.73,-20.45"/>
</g>
</g>
</svg>
